<mxfile host="Electron" modified="2023-08-09T10:56:37.186Z" agent="Mozilla/5.0 (Windows NT 10.0; Win64; x64) AppleWebKit/537.36 (KHTML, like Gecko) draw.io/21.6.5 Chrome/114.0.5735.243 Electron/25.3.1 Safari/537.36" etag="tvzX2E1gJDhOh7bX8WRc" version="21.6.5" type="device">
  <diagram name="Page-1" id="7ufojl2AYmXV3G9yvdlQ">
    <mxGraphModel dx="2629" dy="909" grid="1" gridSize="10" guides="1" tooltips="1" connect="1" arrows="1" fold="1" page="1" pageScale="1" pageWidth="827" pageHeight="1169" math="0" shadow="0">
      <root>
        <mxCell id="0" />
        <mxCell id="1" parent="0" />
        <mxCell id="sy79EJNbQVCAYSITHBRH-1" value="Actor" style="shape=umlActor;verticalLabelPosition=bottom;verticalAlign=top;html=1;outlineConnect=0;" vertex="1" parent="1">
          <mxGeometry x="-790" y="360" width="30" height="60" as="geometry" />
        </mxCell>
        <mxCell id="sy79EJNbQVCAYSITHBRH-2" value="Product Service" style="rounded=0;whiteSpace=wrap;html=1;" vertex="1" parent="1">
          <mxGeometry x="-630" y="270" width="120" height="60" as="geometry" />
        </mxCell>
        <mxCell id="sy79EJNbQVCAYSITHBRH-3" value="ShopCard Service" style="rounded=0;whiteSpace=wrap;html=1;" vertex="1" parent="1">
          <mxGeometry x="-560" y="390" width="120" height="60" as="geometry" />
        </mxCell>
        <mxCell id="sy79EJNbQVCAYSITHBRH-4" value="Saloon Service" style="rounded=0;whiteSpace=wrap;html=1;" vertex="1" parent="1">
          <mxGeometry x="-400" y="300" width="120" height="60" as="geometry" />
        </mxCell>
        <mxCell id="sy79EJNbQVCAYSITHBRH-5" value="User Service" style="rounded=0;whiteSpace=wrap;html=1;" vertex="1" parent="1">
          <mxGeometry x="-600" y="530" width="120" height="60" as="geometry" />
        </mxCell>
        <mxCell id="sy79EJNbQVCAYSITHBRH-6" value="Sound Service" style="rounded=0;whiteSpace=wrap;html=1;" vertex="1" parent="1">
          <mxGeometry x="-430" y="470" width="120" height="60" as="geometry" />
        </mxCell>
      </root>
    </mxGraphModel>
  </diagram>
</mxfile>
